<?xml version="1.0" standalone="no"?>
<svg xmlns:xlink="http://www.w3.org/1999/xlink" id="wave" style="transform:rotate(0deg); transition: 0.3s" viewBox="0 0 1440 100" version="1.1" xmlns="http://www.w3.org/2000/svg"><defs><linearGradient id="sw-gradient-0" x1="0" x2="0" y1="1" y2="0"><stop stop-color="rgba(37, 87, 134, 1)" offset="0%"/><stop stop-color="rgba(37, 87, 134, 1)" offset="100%"/></linearGradient></defs><path style="transform:translate(0, 0px); opacity:1" fill="url(#sw-gradient-0)" d="M0,40L48,43.3C96,47,192,53,288,60C384,67,480,73,576,71.7C672,70,768,60,864,50C960,40,1056,30,1152,33.3C1248,37,1344,53,1440,58.3C1536,63,1632,57,1728,56.7C1824,57,1920,63,2016,55C2112,47,2208,23,2304,23.3C2400,23,2496,47,2592,46.7C2688,47,2784,23,2880,13.3C2976,3,3072,7,3168,18.3C3264,30,3360,50,3456,50C3552,50,3648,30,3744,30C3840,30,3936,50,4032,58.3C4128,67,4224,63,4320,65C4416,67,4512,73,4608,66.7C4704,60,4800,40,4896,36.7C4992,33,5088,47,5184,56.7C5280,67,5376,73,5472,71.7C5568,70,5664,60,5760,55C5856,50,5952,50,6048,56.7C6144,63,6240,77,6336,83.3C6432,90,6528,90,6624,90C6720,90,6816,90,6864,90L6912,90L6912,100L6864,100C6816,100,6720,100,6624,100C6528,100,6432,100,6336,100C6240,100,6144,100,6048,100C5952,100,5856,100,5760,100C5664,100,5568,100,5472,100C5376,100,5280,100,5184,100C5088,100,4992,100,4896,100C4800,100,4704,100,4608,100C4512,100,4416,100,4320,100C4224,100,4128,100,4032,100C3936,100,3840,100,3744,100C3648,100,3552,100,3456,100C3360,100,3264,100,3168,100C3072,100,2976,100,2880,100C2784,100,2688,100,2592,100C2496,100,2400,100,2304,100C2208,100,2112,100,2016,100C1920,100,1824,100,1728,100C1632,100,1536,100,1440,100C1344,100,1248,100,1152,100C1056,100,960,100,864,100C768,100,672,100,576,100C480,100,384,100,288,100C192,100,96,100,48,100L0,100Z"/></svg>